<?xml version="1.0" standalone="no"?>
<!DOCTYPE svg PUBLIC "-//W3C//DTD SVG 20010904//EN"
 "http://www.w3.org/TR/2001/REC-SVG-20010904/DTD/svg10.dtd">
<svg version="1.0" xmlns="http://www.w3.org/2000/svg"
 width="984.000000pt" height="984.000000pt" viewBox="0 0 984.000000 984.000000"
 preserveAspectRatio="xMidYMid meet">

<g transform="translate(0.000000,984.000000) scale(0.100000,-0.100000)"
fill="#000000" stroke="none">
<path d="M1740 4920 l0 -4100 3180 0 3180 0 0 2973 0 2972 -1128 1128 -1127
1127 -2053 0 -2052 0 0 -4100z m3490 2405 l0 -1075 1125 0 1125 0 0 -2405 0
-2405 -2560 0 -2560 0 0 3480 0 3480 1435 0 1435 0 0 -1075z m1260 180 l635
-635 -643 0 -642 0 0 635 c0 349 3 635 8 635 4 0 293 -286 642 -635z"/>
<path d="M3685 5355 c-124 -24 -299 -96 -405 -168 -253 -170 -426 -479 -446
-796 -26 -392 187 -786 515 -955 241 -124 439 -170 637 -146 174 21 344 82
474 170 171 116 370 361 370 456 0 51 -50 79 -105 58 -9 -4 -45 -51 -81 -104
-157 -240 -342 -374 -587 -426 -65 -13 -242 -22 -253 -12 -9 10 -16 1055 -9
1411 l7 387 82 0 c152 -1 316 -50 485 -148 94 -54 204 -145 220 -182 22 -49
56 -82 84 -82 31 0 62 23 70 52 18 68 -172 268 -353 372 -67 38 -163 77 -249
99 -99 27 -353 35 -456 14z"/>
<path d="M6988 5313 c-14 -16 -84 -143 -155 -283 -72 -140 -197 -385 -278
-543 l-147 -289 -140 254 c-77 139 -216 391 -310 561 l-169 307 -516 0 c-283
0 -513 -4 -511 -8 10 -27 1224 -2112 1228 -2112 7 0 47 72 657 1178 223 405
416 746 429 757 25 22 63 99 64 128 0 10 -13 32 -29 48 -39 39 -87 40 -123 2z"/>
</g>
</svg>
