<?xml version="1.0" encoding="UTF-8"?>
<svg xmlns="http://www.w3.org/2000/svg" xmlns:xlink="http://www.w3.org/1999/xlink" width="24pt" height="24pt" viewBox="0 0 24 24" version="1.1">
<g id="surface1">
<path style=" stroke:none;fill-rule:nonzero;fill:rgb(0%,0%,0%);fill-opacity:1;" d="M 12 1.441406 C 6.167969 1.441406 1.441406 6.167969 1.441406 12 C 1.441406 17.832031 6.167969 22.558594 12 22.558594 C 17.832031 22.558594 22.558594 17.832031 22.558594 12 C 22.558594 6.167969 17.832031 1.441406 12 1.441406 Z M 10.078125 5.28125 L 18.238281 5.28125 L 17.75 5.703125 C 17.75 5.722656 17.761719 5.742188 17.761719 5.761719 L 17.761719 8.292969 C 18.046875 8.457031 18.238281 8.765625 18.238281 9.121094 L 18.238281 12 C 18.238281 12.527344 17.808594 12.960938 17.28125 12.960938 C 16.753906 12.960938 16.320312 12.527344 16.320312 12 L 16.320312 9.121094 C 16.320312 8.765625 16.511719 8.457031 16.800781 8.292969 L 16.800781 6.515625 L 15.078125 7.992188 C 15.246094 8.328125 15.359375 8.734375 15.359375 9.234375 C 15.359375 10.539062 14.628906 11.1875 13.90625 11.765625 C 13.679688 11.996094 13.414062 12.246094 13.414062 12.632812 C 13.414062 13.019531 13.679688 13.234375 13.871094 13.386719 L 14.492188 13.882812 C 15.253906 14.535156 15.945312 15.132812 15.945312 16.347656 C 15.945312 18.003906 14.367188 19.679688 11.390625 19.679688 C 8.878906 19.679688 7.671875 18.464844 7.671875 17.160156 C 7.671875 16.527344 7.980469 15.628906 9.003906 15.007812 C 10.074219 14.34375 11.53125 14.25 12.3125 14.199219 C 12.066406 13.882812 11.789062 13.550781 11.789062 13 C 11.789062 12.707031 11.878906 12.527344 11.964844 12.3125 C 11.773438 12.332031 11.582031 12.351562 11.410156 12.351562 C 9.585938 12.351562 8.542969 10.96875 8.535156 9.601562 L 5.28125 9.601562 Z M 11.648438 6.835938 C 11.203125 6.835938 10.71875 7.0625 10.441406 7.421875 C 10.148438 7.785156 10.054688 8.261719 10.054688 8.71875 C 10.054688 9.898438 10.738281 11.855469 12.222656 11.855469 C 12.65625 11.855469 13.125 11.644531 13.402344 11.363281 C 13.796875 10.953125 13.832031 10.390625 13.832031 10.078125 C 13.832031 8.808594 13.089844 6.835938 11.648438 6.835938 Z M 12.5 14.691406 C 12.34375 14.691406 11.410156 14.726562 10.683594 14.976562 C 10.300781 15.121094 9.195312 15.539062 9.195312 16.789062 C 9.195312 18.042969 10.386719 18.941406 12.238281 18.941406 C 13.90625 18.941406 14.785156 18.125 14.785156 17.035156 C 14.785156 16.136719 14.21875 15.664062 12.902344 14.710938 C 12.761719 14.691406 12.675781 14.691406 12.5 14.691406 Z M 12.5 14.691406 "/>
</g>
</svg>
